<svg width="34" height="93" viewBox="0 0 34 93" fill="none" xmlns="http://www.w3.org/2000/svg">
<path d="M26.8665 32.428C17.9836 25.4576 7.38809 19.1824 0 0V92.5001C6.44522 75.6301 18.4051 68.889 28.0682 59.6002C32.0726 55.7509 34.0748 53.8263 33.6635 45.6325C33.2522 37.4388 31.1236 35.7685 26.8665 32.428Z" fill="white"/>
<path fill-rule="evenodd" clip-rule="evenodd" d="M14.4169 41.4997C14.661 41.7438 14.661 42.1395 14.4169 42.3836L9.80052 47L14.4169 51.6164C14.661 51.8605 14.661 52.2562 14.4169 52.5003C14.1728 52.7444 13.7771 52.7444 13.533 52.5003L8.47469 47.4419C8.35747 47.3247 8.29163 47.1658 8.29163 47C8.29163 46.8342 8.35747 46.6753 8.47469 46.5581L13.533 41.4997C13.7771 41.2556 14.1728 41.2556 14.4169 41.4997Z" fill="#7D7D7D"/>
<path fill-rule="evenodd" clip-rule="evenodd" d="M8.43335 47C8.43335 46.6548 8.71317 46.375 9.05835 46.375H23.0834C23.4286 46.375 23.7084 46.6548 23.7084 47C23.7084 47.3452 23.4286 47.625 23.0834 47.625H9.05835C8.71317 47.625 8.43335 47.3452 8.43335 47Z" fill="#7D7D7D"/>
</svg>
