<svg width="34" height="93" viewBox="0 0 34 93" fill="none" xmlns="http://www.w3.org/2000/svg">
<path d="M7.1335 32.428C16.0164 25.4576 26.6119 19.1824 34 0V92.5001C27.5548 75.6301 15.5949 68.889 5.93182 59.6002C1.92739 55.7509 -0.0748253 53.8263 0.336487 45.6325C0.747799 37.4388 2.87637 35.7685 7.1335 32.428Z" fill="white"/>
<path fillRule="evenodd" clipRule="evenodd" d="M19.5829 41.4997C19.3389 41.7438 19.3389 42.1395 19.5829 42.3836L24.1994 47L19.5829 51.6164C19.3389 51.8605 19.3389 52.2562 19.5829 52.5003C19.827 52.7444 20.2228 52.7444 20.4668 52.5003L25.5252 47.4419C25.6424 47.3247 25.7083 47.1658 25.7083 47C25.7083 46.8342 25.6424 46.6753 25.5252 46.5581L20.4668 41.4997C20.2228 41.2556 19.827 41.2556 19.5829 41.4997Z" fill="#7D7D7D"/>
<path fillRule="evenodd" clipRule="evenodd" d="M25.5667 47C25.5667 46.6548 25.2868 46.375 24.9416 46.375H10.9166C10.5714 46.375 10.2916 46.6548 10.2916 47C10.2916 47.3452 10.5714 47.625 10.9166 47.625H24.9416C25.2868 47.625 25.5667 47.3452 25.5667 47Z" fill="#7D7D7D"/>
</svg>
